/* XPM */
static char *kermit_48.xpm[] = {
"48 48 8 1",
" 	c cyan",
".	c white",
"X	c black",
"o	c sea green",
"O	c lime green",
"+	c grey",
"@	c orange",
"#	c sienna",
"                                                ",
"          .........                             ",
"       ................                         ",
"        ................                        ",
"          ...........                           ",
"           .                                    ",
"                                                ",
"    XXX                                  XXX    ",
"   XoooXX                              XXoooX   ",
"  XooooooX                            XooooooX  ",
" XooooooOoX        XXXX   XXXX       XooooooooX ",
" XooOooooooX      X....X X....X     XoooooooooX ",
"XooooooOOOoX     X..XX..X..XX..X    XooooooooooX",
"XooOoooOOOOoX    X.X+.X.X.X+.X.X   XooooOOOooooX",
"XooooOOOOOOOoX   X.X++X.X.X++X.X  XooooOooOOOooX",
"XooooOOOOOOOOX XXX..XX..X..XX..X  XoooOoOOoOoOoX",
"XooooOOOOOOOOXXOOOX....XOX....XOXXoooOoOOOOOOooX",
"XoOoOOOOOOOOXOOOOOOXXXXOOOXXXXOOOOXOOOOOOOOOOOOX",
"XoooOOOOOOXXOOOOOOOOOOOOOOOOOOOOOOOXOOOOOOOOOOOX",
" XoooOOXXXOOOOOOOOOOOOOOOOOOOOOOOOOOXXXXOOOOOOX ",
" XoOOOXOOOOOOOOXXXXXXXXXXXXXXXXXXOOOOOOOXXOOOOX ",
" XooXXOXOOOOXXXXXXXXXXXXXXXXXXXXXXXXOOOXOOXOOOX ",
" XoXOOOXXXXXXXXXXXXXXXXXXXXXXXXXXXXXXXXXOOOXOOX ",
" XoXOOOXXXXXXXXXXXX@@@@#X#@@@@XXXXXXXXXXOOOXOOX ",
" XoXOOOOXXXXXXXXXX@@@@@###@@@@@XXXXXXXXOOOOXOOX ",
"  XXOOOOOXXXXXXXXXXX@@@@@@@@@XXXXXXXXXOOOOOXOX  ",
"  XoXXXOOOOOOOXXXXXXXXXXXXXXXXXXXOOOOOOOOXXOOX  ",
"  XoOOOXXXXXXOOOOOOOOOOOOOOOOOOOOOOOOOOXXOOOOX  ",
"   XooOOOOOOOXXXOOOOOOOOOOOOOOOOOOOOOXXOOOOOX   ",
"    XoooOOOOOXooXXOOOOOOOOOOOOOOOXXXXOOOOOOX   @",
"@@   XoOoOOOXooOOOXXXXXXXXXXXXXXXooooOOOOOX  @@@",
"@@@@  XoooOOXoooOOOOOoooOOOOoooOOOXXoOOOOX@@@@@@",
"@@@@@@XXXXoOOXoOOOOOXooOOOOXooOOOOoOOOXXXX@@@@@@",
"@@@@XXooOOXXXXooOOOOXoooOOOXoOOOOOXXXXOOOOXX@@@@",
"@@XXooOoOOOOOXXoOOOOXooOOOOXooOOOOXoooOOOOOOXX@@",
"@XooXOXoOXOOOX#XooOOXoOoOOOXoOOOOOXoooXooXOXOOX@",
"XooXooXOOXOOX##XooOOXXoXXXXXooOOOXXXooXoOXooXoOX",
"#XX#XX#XX#XX####XOOOOOX##XoooOOOX###XX@XX@XX@XX@",
"###############ooooXOOX##XooXOOOX@@@@@@@@@@@@@@@",
"##############XooXOOXX####XXoOXOOX@@@@@@@@@@@@@@",
"###############XX#XX########XX#XX@@@@@@@@@@@@@@@",
"################################@@@@@@@@@@@@@@@@",
"###########################@@@@@@@@@@@@@@@@@@@@@",
"#########################@@@@@@@@@@@@@@@@@@@@@@@",
"#####################@@@@@@@@@@@@@@@@@@@@@@@@@@@",
"####@@##############@@@@@@@@@@@@@@@@@@@@@@@@@@@@",
"@@@@@@@@@@@@@@@@@@@@@@@@@@@@@@@@@@@@@@@@@@@@@@@@",
"@@@@@@@@@@@@@@@@@@@@@@@@@@@@@@@@@@@@@@@@@@@@@@@@"};
