/* XPM */
static char *magick[] = {
/* columns rows colors chars-per-pixel */
"48 48 256 2",
"   c #060604040606",
".  c #080888884040",
"X  c #9c9c9e9e4c4c",
"o  c #1f1fc7c73c3c",
"O  c #47478a8a5151",
"+  c #4747c4c43939",
"@  c #747448482828",
"#  c #4747a5a53131",
"$  c #2020d8d8b8b8",
"%  c #a4a4c6c66c6c",
"&  c #71716a6a4444",
"*  c #0c0ca6a61414",
"=  c #4848aeae7474",
"-  c #c8c896960808",
";  c #040446460c0c",
":  c #4848d8d8a0a0",
">  c #0505e9e9e5e5",
",  c #a4a443431111",
"<  c #d4d4a6a67c7c",
"1  c #d0d0a8a82424",
"2  c #6464a2a24444",
"3  c #2929ededd9d9",
"4  c #242484845c5c",
"5  c #4848b3b33737",
"6  c #040427270606",
"7  c #6767c7c75757",
"8  c #a2a254541a1a",
"9  c #eaeaaaaa1414",
"0  c #4747d9d95454",
"q  c #4646c2c27878",
"w  c #2e2eaaaa2c2c",
"e  c #0808f6f6dede",
"r  c #4a4ab4b44f4f",
"t  c #282805050505",
"y  c #4747cfcf3d3d",
"u  c #e9e9adad4545",
"i  c #2828d6d63636",
"p  c #272787872f2f",
"a  c #4949e9e9c7c7",
"s  c #2626fafaf6f6",
"d  c #3737b5b52929",
"f  c #717155552727",
"g  c #4c4c60604040",
"h  c #040418180505",
"j  c #e4e48e8e0707",
"k  c #a3a353533333",
"l  c #3838c6c62828",
"z  c #5656c6c63c3c",
"x  c #6767adad7373",
"c  c #fafab4b41212",
"v  c #68688c8c4848",
"b  c #292993935959",
"n  c #a8a868680808",
"m  c #5959b5b55252",
"M  c #3c3cb5b55555",
"N  c #3333c7c75555",
"B  c #b5b54a4a2626",
"V  c #26269a9a1c1c",
"C  c #e4e49a9a5c5c",
"Z  c #4646a9a95454",
"A  c #484894943434",
"S  c #1818f9f9e9e9",
"D  c #e4e4caca4c4c",
"F  c #040434340808",
"G  c #fafaa9a90606",
"H  c #e8e89c9c0606",
"J  c #909054541717",
"K  c #4747c6c65252",
"L  c #a7a745452e2e",
"P  c #2929edededed",
"I  c #3c3ccece1c1c",
"U  c #f9f99a9a0707",
"Y  c #1c1ce9e9e9e9",
"T  c #36368b8b6666",
"R  c #6161e6e6d1d1",
"E  c #4646bbbb7474",
"W  c #b7b755551111",
"Q  c #3737b4b43d3d",
"!  c #414175754040",
"~  c #181805050404",
"^  c #9494c2c28484",
"/  c #3939d2d2cfcf",
"(  c #10107e7e3030",
")  c #6464cecec9c9",
"_  c #161615150404",
"`  c #5656aaaa5a5a",
"'  c #ccccdededcdc",
"]  c #929263633737",
"[  c #8c8c52522f2f",
"{  c #a3a35c5c1717",
"}  c #4949bcbc5454",
"|  c #b6b658583939",
" . c #2c2c6e6e2c2c",
".. c #565685856666",
"X. c #3838fbfbf3f3",
"o. c #e7e7fdfdf9f9",
"O. c #c4c4bebe1414",
"+. c #5757baba3737",
"@. c #373788884444",
"#. c #04041b1b2424",
"$. c #3737c5c53b3b",
"%. c #040428282222",
"&. c #fbfba9a92020",
"*. c #a2a24c4c2b2b",
"=. c #09099a9a3737",
"-. c #8484b2b26868",
";. c #4646caca3b3b",
":. c #8a8a44441c1c",
">. c #6666b9b96c6c",
",. c #5757bcbc5b5b",
"<. c #3535bbbb3c3c",
"1. c #45458b8b6c6c",
"2. c #6666b6b65b5b",
"3. c #26268b8b7e7e",
"4. c #0606fcfcfafa",
"5. c #a4a45b5b3838",
"6. c #c9c967671919",
"7. c #fafaa0a00808",
"8. c #5757b8b87474",
"9. c #59597a7a3737",
"0. c #0707f1f1f2f2",
"q. c #1515fbfbfbfb",
"w. c #34346e6e5c5c",
"e. c #8f8f43433737",
"r. c #05050c0c0505",
"t. c #4848dbdbdcdc",
"y. c #3939ebebd4d4",
"u. c #4747e6e6e4e4",
"i. c #373798985959",
"p. c #9191fefefcfc",
"a. c #a4a49a9a1c1c",
"s. c #6464e2e26c6c",
"d. c #b8b8b8b83434",
"f. c #2121b9b92525",
"g. c #c4c4a2a24444",
"h. c #ccccc2c29494",
"j. c #acacc2c28484",
"k. c #d3d3fefefbfb",
"l. c #b4b4fefefcfc",
"z. c #a4a4aeae5454",
"x. c #717177773f3f",
"c. c #6f6f9b9b4949",
"v. c #efefbbbb3737",
"b. c #8c8c78785050",
"n. c #464696967070",
"m. c #6060e8e8ecec",
"M. c #6868dcdcb8b8",
"N. c #c6c6a8a84646",
"B. c #a9a964644545",
"V. c #3939d8d83d3d",
"C. c #7474cccc7272",
"Z. c #2020a8a84343",
"A. c #7c7cb2b2acac",
"S. c #262699994040",
"D. c #aeaeb9b95f5f",
"F. c #24241a1a0404",
"G. c #dcdcb2b2c4c4",
"H. c #3939a6a65757",
"J. c #2424bebe6464",
"K. c #b8b8b7b7bcbc",
"L. c #b4b4dede8c8c",
"P. c #3737dfdfd4d4",
"I. c #1010dddddcdc",
"U. c #646465653a3a",
"Y. c #69699e9e6c6c",
"T. c #bcbca8a83c3c",
"R. c #d4d4b9b94141",
"E. c #4444f2f2cccc",
"W. c #6c6c92927c7c",
"Q. c #6161f3f3c4c4",
"!. c #dada9d9d1414",
"~. c #f4f4a2a24040",
"^. c #09097d7d5151",
"/. c #6565abab5959",
"(. c #2a2a97977a7a",
"). c #5959dede6767",
"_. c #5757c8c86c6c",
"`. c #f8f8aaaa4444",
"'. c #5c5c9c9c5c5c",
"]. c #5050f3f3ecec",
"[. c #7878ceceb8b8",
"{. c #2f2f7c7c5050",
"}. c #bcbc72722c2c",
"|. c #3434e4e44848",
" X c #8484aeae4444",
".X c #5c5caeae4444",
"XX c #717155554444",
"oX c #424279795f5f",
"OX c #94946d6d5151",
"+X c #dcdc9c9c5454",
"@X c #747478786060",
"#X c #191999994040",
"$X c #5757dbdbdada",
"%X c #5c5cf2f2e8e8",
"&X c #3c3ccfcf6464",
"*X c #91914d4d1c1c",
"=X c #2c2c7c7c6969",
"-X c #1c1c8d8d4242",
";X c #808066664444",
":X c #7777aeae6f6f",
">X c #3939ecece8e8",
",X c #f8f8fcfcfafa",
"<X c #7878b6b64c4c",
"1X c #393996964a4a",
"2X c #f8f8c8c82828",
"3X c #acac63632727",
"4X c #e4e4c2c25c5c",
"5X c #1f1fd2d23131",
"6X c #5c5cd6d6afaf",
"7X c #a8a84d4d1414",
"8X c #d9d9abab4949",
"9X c #5959a8a87373",
"0X c #1f1fdcdcdcdc",
"qX c #373708080404",
"wX c #fcfc92920404",
"eX c #040439392a2a",
"rX c #92924c4c3131",
"tX c #d7d7b0b03232",
"yX c #50506a6a3c3c",
"uX c #3838bdbd5555",
"iX c #94945b5b2020",
"pX c #b8b8aeae5c5c",
"aX c #bcbc62623c3c",
"sX c #282887874242",
"dX c #47479b9b5656",
"fX c #e8e89e9e2121",
"gX c #383896967474",
"hX c #6868d0d04444",
"jX c #5656c5c55454",
"kX c #7777baba7979",
"lX c #54547e7e5454",
"zX c #1c1c7a7a5c5c",
"xX c #6c6caeae3838",
"cX c #25258c8c5e5e",
"vX c #77775b5b2727",
"bX c #25259d9d6161",
"nX c #41417b7b4747",
"mX c #90906c6c3c3c",
"MX c #8d8d5c5c3737",
"NX c #b4b4c0c05454",
"BX c #3737d0d03d3d",
"VX c #2e2e70704c4c",
"CX c #7070e4e48c8c",
"ZX c #2424a2a22424",
"AX c #4848d0d05252",
"SX c #6868dadad4d4",
"DX c #d4d492921c1c",
"FX c #3c3cabab3737",
"GX c #5454e2e2cccc",
"HX c #34349e9e2c2c",
"JX c #f4f492923c3c",
"KX c #545492926464",
"LX c #4848acac3e3e",
"PX c #4747bbbb3333",
"IX c #3232bbbb2828",
"UX c #1717f0f0eeee",
/* pixels */
"e 4.q.q.0.4.4.4.4.S y.GX$X$X) SX$Xa y.3 e 4.4.e 4.q.UX0.4.4.4.4.4.4.4.4.4.4.4.4.4.4.4.4.q.4.4.4.",
"q.4.0.0.q.4.4.0.3 y.l.p.k.l.l.l.l.l.p.].$ X.s s q.UX4.4.4.4.4.4.4.4.4.4.4.4.4.4.4.q.4.4.0.0.4.4.",
"4.> q.q.UXs s p.l.k.k.,Xo.,Xo.k.k.o.k.k.k.l.p.t.P q.4.4.4.4.4.4.4.4.4.4.4.4.4.4.4.4.4.4.4.4.4.4.",
"4.4.4.q.> q.I.>Xl.k.o.o.,X,Xk.o.o.o.,Xk.k.l.l.p.P 4.4.4.4.4.4.4.4.4.4.4.4.4.4.4.4.4.4.4.4.> 4.4.",
"0.4.4.4.4.q.S S P ].l.k.k.l.l.k.k.l.l.l.p.X.I.0.4.4.4.4.4.4.4.S 4.4.4.4.4.4.4.4.q.4.4.4.4.4.4.4.",
"4.4.4.0.q.e s 0.e q.>Xp.m.m./ u.$Xt.t.>Xs q.4.4.4.4.4.4.4.4.0.q.4.4.4.4.4.4.4.4.UXS s q.e 4.4.0.",
"4.0.4.q.X.>X0Xs S 0.> Y P Y P s Y s s 0.0.0.q.q.4.4.4.4.4.4.4.4.UXq.0.4.4.4.4.4.s P.t./ s 4.4.4.",
"4.4.Y P %.%.eXy.3 S q.q.0.q.4.4.4.0.4.4.4.q.0.4.4.4.4.4.4.4.4.0.UXq.4.4.4.4.S y.P.eX#.%.u.UXq.4.",
"4.UX].6 (.4 4 6 #.$X>XS q.0.4.4.4.4.0.4.4.0.4.4.4.4.4.4.4.0.q.0.4.4.4.4.4.S P.%.6 3.3.3.#.t.S 4.",
"e X.h =XT H.sX@.gX6 / X.> q.4.4.4.0.X.0XP X.UXUXs UXX.0X0XX.UXq.0.4.4.4.S X.6 3.T T 3.zX=XeX$ S ",
"y.F cXn.( -XbX-XE (.F t.S 4.4.4.4.S P.#.#.#.%.%X/ m.#.#.#.#.>XS 4.0.4.e y.%.T oX=X4 T =X=X3.%.y.",
"R 6 4 4 8.#X#X=.=.bX^.eXs > 4.4.S 3 %.o.,X,Xk.#.M.h o.,X,Xk.6 E.0.4.q.X.%.=Xw.O {.Z sXi.cX3.%.SX",
"r.n.(.bX4 1X#XN J.uX(.F y.S 4.s >X6 k.,Xt ~ ,X,Xh k.o.    ,X,X#.s e S P.6 1.oX@.# -X( -XH.4 =Xh ",
"r.w.3.= @.@.* N N &XE . F y.s I.$Xh ,X~ G.,X  ,Xr.o.  ' o.  ,Xr.0Xs >X%.gX{.dXp LXQ s.#X. cXKXr.",
"h x VX@.-XM K $.BXf.0 uXcX%.u.].) #.k.  K.K.r.,Xr.,Xr.K.K.  ,X#.>XP %.(.zX4 sX} HXZXo o &X-Xw.  ",
"h VXlXO S.N l y I BXIXAX= 6 6X6 6 h k.o.r.r.k.o.h o.,X    ,Xo.6 a y.%.=Xi.i.Q ZX5 AX* i =.q lXr.",
"6 VXT @.Z.f.l l I I o 0 Z 6 F uXM ,.h o.,Xo.k.h '.h o.,X,Xo.6 M 6 6 1.1.p z V + PXAXi i BXS.{.h ",
"h n.9X1XJ.0 l I + IX&XQ F ,.5 $.y K .Xh h h 6 8.,.m h r.h 6 FXK K C.6 dX7 PXPX+ ;.d i 5Xi <.x h ",
"F VX4 #XZ.N + PXjX} F 6 ,.5 + l BXIXd hX5 jX<.<.$.$.} m LXr AXIXl f.$.F LXLXz + IXV.|.5Xo &XZ h ",
"A.#.bXbXZ.N r F 6 F r ,.} 5 <.;.uX} 5 7 5 LX).uXuX} FX7 7 # jXK l y <.).F 6 F F IX|.f.5X|.J.6 [.",
"[.eX^.q = r 6 m z <.BXQ } ,.8.h 6 6 r.r.r.h h h 6 h h r.r.h h h h .X>.Z uXK jXFX6 F $.|.f.N F R ",
") %.4 -XF 6 2.6 LXjXjX} 6 h h r.r.        ~ r.        ~       r.r.h h h ,.Z m 6 9XE F <.$.&XF / ",
"6X6 T 6 M jXdX6 h h h r.  ~ ~   h   ~ t qXt t ~ ~ t qXt t ~ r.r.  ~ r.h #.h r.h 8.H.} ; 5 uXF GX",
"GX6 sXh jXQ ,.h r.r.  r.~ t       r.~ < C u +XiXqX:.~.C u N.h   ~ ~ r.      r.h ` 7 LXF + uXF GX",
"Y eX=XF r Q ,.Z h h h r.        r.  < +X~.~.!.n J J ~.v.u g.h.  ~ ~   h     h xX+.z PXF $.J.eXP ",
"q.P h h m +._.r x r.h F r.h h h r.r.  ~ 4XtXD d.R.R.1 1 T.F.  r.r.r.h h 6 h <X2 +.+.+.6 K F 3 Y ",
"> X.%.oX6 6 6 m x :X:XO 2.9Xh h h h h h h h h h h 6 h h 6 h h 6 6 PXK K + IXPX+..X6 h _.E F X.UX",
"q.P %.3.x dXm F 6 6 h F 6 m x >.2.7 LX,.jXr ,.,.2.Z Z ,.r m C.LX<.0 Q uXBX;.l ; F Z 8.gXq F 0Xs ",
"q.I.y.F b HX5 PX+ ;.Q M ` 6 h h ` Z uXBX$.$.0 d ;.+ IX0 $.Q Z m + } ,.'.kX6 F IXd AXq q F a E.$ ",
"a Q.Q.a F #Xw V l BX&XK Z h ! O 6 F K <.N + y PXd ;.;.uXuX} ,.,.5 6 h h h .X+ l BX$.H.6 6X6XCXCX",
"N.D.C.: E.; ^._.-XK <._.h  .i.r r jXF 6 6 6 6 F F 6 6 6 h 6 6 F F i.oXoX1XuXBXl $.LX6 L.% NXd.O.",
"7.v.D.C.Q.: F 4 b p } H.F O -XZ.K 5 5 2.x {.O {.r 2.>.KX1.sXHXd r ,.h h @.} IXBXjXh % z.R.9 9 c ",
"G 9 u T.pX% h 6 h F @.'.:Xh i.M o BXz # 6 @.b E r jXm 6 i.-X$.i ;.FXHX/.2.2.6 6 h h D.R.!.&.G 7.",
"9 !.u tXt r.9.! /.` h 6 h h @.i.N BXl z 6 sXb -X&XV C.6 @.E BXo $.+ 6 6 h h kXKX2 -.6 r.1 v.j 7.",
"9 u ~ h 9.O ` 1Xr LXK ,.m 6 r.lX= } + +.F 1XsX,.jXjXm 6 H.S.IXy uXjXF H.@.1X9X/.>.` A <X6 r.d.v.",
"u ~ x.9.h 9Xh dX>.6 z FX2.h U.  dX-XQ z 6 @.9XO '.2.m 6 -XM y <.m 8.h zX{.T 6 nX@.6 >.h 2 c.h d.",
"t ;X@Xr...oXh Y.Y.h Y.-.r.U.OX  {.#XAXQ F h yXr.  h h h S.#X;.PX2 h h r.W.g r.9.v 6 nX! 6 9.X _ ",
"XX~ ~ &   _ &     U.r.  & f ;XU.6 E Q + ` ^   XX;X  lXT -XK w hXh & & U._   pX~ _ z.h h D.~ ~ N.",
";XmX[ 5.rX:.MXvXMXvX5.[ [ ;Xb.! @.-XZ.F .Xc.  OXMX  yX{.F M jX# h T.tXv.DX9 v.1 9 2X- 2X!.9 9 9 ",
"vX@ B.7XL 7X3XJ J { *.k iX[   x.lXh /.2.h r.OX[ MXf _ h ! x h  Xa.qXH G G 7.7.c 9 H c 7.7.G U &.",
"8 { 7X*.| *.*.8 k 3XiX*XMXOX@ t t f ~ ~ f MXMXMX5.iX] vX~ ~ @ qXqX!.c G G 7.G G G G 7.7.7.7.U 7.",
"7XW 5.*.:.rXk aX*XJ J iX[ 5.rXe.e.B.:.e.B.rX*.k { J *X3X8 8 }.J DXv.7.7.G 7.U U G 7.7.7.7.U 7.7.",
"L L *.k B.B.*X:.5.8 iXiX[ rXL | | k rX| 5.e.rX[ J n n DX`.H fXfXc &.H G c 7.G G 7.G G G G G 7.&.",
"B k | [ *X*X*.aX5.*.*.k k L L L k e.k , e.aX{ { { 9 fX7.c 7.9 c U 7.&.&.7.7.G 7.7.G G G 9 9 G G ",
"e.L L *.7Xk B 7XB B L B B B B 7Xk iX3X, 6.~.fX7.!.c &.7.7.c 9 H G 7.G 7.H G G 7.G 7.G 9 9 G 9 G ",
"aX8 7X6.JXJX6., B B B B , W W { 8 { 7XW j &.U G G 7.7.7.7.7.c 7.G wX7.7.7.c G G 7.G G G G G c G ",
"H 7.H U 7.7.7.7.7.&.&.7.fX7.9 9 &.fX7.7.G c 7.c G U 7.G 7.7.G c G U G G G 7.H 7.G 7.7.G 7.G G G ",
"c c G G G G G G G G 9 9 c c 9 9 H 7.G G G G G G G U 7.7.7.G G 7.G 7.G U G c 7.&.&.7.7.7.7.7.7.G "
};
