#define frog_width 48
#define frog_height 48
static char frog_bits[] = {
  0x00, 0x00, 0x00, 0x00, 0x00, 0x00, 0x00, 0x00, 0x00, 0x00, 0x00, 0x00, 
  0x00, 0x00, 0x00, 0x00, 0x00, 0x00, 0x00, 0x00, 0x00, 0x00, 0x00, 0x00, 
  0x00, 0x00, 0x00, 0x00, 0x00, 0x00, 0x00, 0x00, 0x00, 0x00, 0x00, 0x00, 
  0x00, 0x00, 0x00, 0x00, 0x00, 0x00, 0x70, 0x00, 0x00, 0x00, 0x00, 0x0E, 
  0xF8, 0x01, 0x00, 0x00, 0x80, 0x1F, 0xDC, 0x03, 0x00, 0x00, 0xC0, 0x3F, 
  0xF6, 0x06, 0x78, 0x3C, 0xE0, 0x7F, 0xEE, 0x0F, 0x84, 0x42, 0xF0, 0x7D, 
  0x75, 0x08, 0x32, 0x99, 0xF0, 0xEE, 0x77, 0x18, 0x4A, 0xA5, 0xB8, 0xB8, 
  0x1D, 0x30, 0x4A, 0xA5, 0x7C, 0xE1, 0x1F, 0xA0, 0x33, 0x99, 0xBC, 0xD4, 
  0x0F, 0x60, 0x84, 0x42, 0x5F, 0xE0, 0x09, 0x10, 0x78, 0x3C, 0x04, 0x80, 
  0x0F, 0x0C, 0x00, 0x00, 0x08, 0x80, 0x8A, 0x03, 0x00, 0x00, 0xF0, 0x40, 
  0x46, 0x80, 0xFF, 0xFF, 0x01, 0x43, 0xBE, 0xF0, 0xFF, 0xFF, 0x8F, 0x44, 
  0x8E, 0xFF, 0xFF, 0xFF, 0xFF, 0x48, 0x8E, 0xFF, 0x87, 0xC3, 0xFF, 0x48, 
  0x0E, 0xFF, 0x83, 0x83, 0x7F, 0x48, 0x0C, 0xFE, 0x0F, 0xE0, 0x3F, 0x28, 
  0x7C, 0xC8, 0xFF, 0xFF, 0x01, 0x26, 0x8C, 0x1F, 0x00, 0x00, 0x80, 0x29, 
  0x18, 0xE0, 0x00, 0x00, 0x60, 0x10, 0xB0, 0xE0, 0x03, 0x00, 0x1E, 0x08, 
  0x60, 0x31, 0xFC, 0xFF, 0x1D, 0x04, 0xC0, 0x73, 0xE0, 0x70, 0x1C, 0x02, 
  0xC0, 0x67, 0x70, 0x28, 0xC4, 0x03, 0xF0, 0xFC, 0xF0, 0x1A, 0x3C, 0x0C, 
  0xBC, 0xE0, 0x70, 0x28, 0x34, 0x34, 0x5E, 0xE2, 0xB3, 0x18, 0xFC, 0x4B, 
  0x7F, 0xF2, 0xF3, 0x3F, 0xEE, 0xBE, 0xFF, 0xFF, 0xC1, 0x1F, 0xBF, 0x6D, 
  0xFF, 0xFF, 0xCB, 0x1F, 0x01, 0x00, 0xFF, 0xFF, 0xF3, 0x5F, 0x02, 0x00, 
  0xFF, 0xFF, 0xFF, 0xFF, 0x01, 0x00, 0xFF, 0xFF, 0xFF, 0xFF, 0x00, 0x00, 
  0xFF, 0xFF, 0xFF, 0x07, 0x00, 0x00, 0xFF, 0xFF, 0xFF, 0x01, 0x00, 0x00, 
  0xFF, 0xFF, 0x1F, 0x00, 0x00, 0x00, 0xCF, 0xFF, 0x0F, 0x00, 0x00, 0x00, 
  0x00, 0x00, 0x00, 0x00, 0x00, 0x00, 0x00, 0x00, 0x00, 0x00, 0x00, 0x00, 
  };
